# xmcd
#
# Track frame offsets:
# 150
# 22761
# 36778
# 58580
# 71901
# 94125
# 113796
# 141810
# 150701
# 188566
# 207804
#
# Disc length: 3133 seconds
#
#
# Revision: 0
# Processed by: cddbd v1.5.2PL0 Copyright (c) Steve Scherf et al.
# Submitted via: Nero 7, 11, 10, 0 
#
DISCID=8f0c3b0b
DTITLE=Jim King - When The Blues Are Green
DYEAR=2001
DGENRE=Blues
TTITLE0=Sugar Mama
TTITLE1=Rollin Man
TTITLE2=Drifting
TTITLE3=Rattlesnake Shake
TTITLE4=World Keeps On Turning
TTITLE5=Lemon Squeezer
TTITLE6=Fool No More
TTITLE7=Long Grey Mare
TTITLE8=Need Your Love So Bad
TTITLE9=Coming Your Way
TTITLE10=Love That Burns
EXTD=
EXTT0=Sugar Mama
EXTT1=Rollin Man
EXTT2=Drifting
EXTT3=Rattlesnake Shake
EXTT4=World Keeps On Turning
EXTT5=Lemon Squeezer
EXTT6=Fool No More
EXTT7=Long Grey Mare
EXTT8=Need Your Love So Bad
EXTT9=Coming Your Way
EXTT10=Love That Burns
PLAYORDER=
